<svg xmlns="http://www.w3.org/2000/svg" width="205.42" height="66.951" viewBox="0 0 205.42 66.951">
  <g id="footer-logo" transform="translate(-623.58 107.247)">
    <g id="レイヤー_1" data-name="レイヤー 1" transform="translate(623.58 -107.247)">
      <path id="パス_40" data-name="パス 40" d="M4.5,57.187l1.81.225c-1.97,2.035-4.15.8-6.313.627.515-.338,1.046-.989,1.544-.957,2.188.121,3.016-1.391,3.619-2.976,1.327-3.482,2.493-7.021,3.732-10.552a5.919,5.919,0,0,0-6.925,5.01c-.072.8-.981,1.608-1.721,2.22a4.93,4.93,0,0,1,1.81-5.043,20.532,20.532,0,0,1,5.388-3.016A3.394,3.394,0,0,0,9.86,40.314C13.431,29.586,17.1,18.881,20.645,8.145c.434-1.311,1.07-1.721,2.525-1.2-3.868,11.613-7.8,23.21-11.734,34.888,1.4.185,2.638.241,3.82.523,2.469.587,3.313,2.557,1.777,4.616a31.219,31.219,0,0,1-4.078,3.78c.4,1.126.844,2.517,1.383,3.876,1.134,2.855,1.818,3.032,4.375,1.005a4.649,4.649,0,0,1-3.177,2.992,2.268,2.268,0,0,1-1.866-.957A51.359,51.359,0,0,1,11.259,52.3c-.3-.716-.45-1.319-1.464-1.247s-1.608,0-1.9,1.158c-.563,2.019-1.424,3.8-3.667,4.6ZM8.67,49.9c3.579.74,6.362-.933,6.82-3.828a2.107,2.107,0,0,0-1.753-2.646c-.917-.185-2.566-.225-2.791.225A51.848,51.848,0,0,0,8.67,49.9Z" transform="translate(0 -1.317)" fill="#fff"/>
      <path id="パス_41" data-name="パス 41" d="M239.959,12.761V41.416c-1.737.676-2.767,0-3.217-.909a10.257,10.257,0,0,0,.989-2.759c.064-7.7.04-15.409.04-23.106,0-.555-.048-1.11-.08-1.818H230.75V10.694h7V.07h2.2V6.834c0,3.86,0,3.86,3.941,3.86h3.386c-.571,1.359-1.214,2.2-2.734,2.091S241.639,12.761,239.959,12.761Z" transform="translate(-45.171 -0.014)" fill="#fff"/>
      <path id="パス_42" data-name="パス 42" d="M143.14,59.411c.418,1.166.909,2.662,1.5,4.118,1.037,2.557,1.89,2.718,3.876.8-.121,1.11-1.512,2.839-2.718,2.807a3.217,3.217,0,0,1-2.332-1.415,28.3,28.3,0,0,1-2.131-4.962c-.3-.8-.627-1.2-1.544-1.158s-1.472.08-1.761,1.11c-.555,1.986-1.335,3.884-3.482,4.938l1.866.362c-1.906,2.011-4.069.732-6.04.9l-.185-.41c.587-.314,1.19-.917,1.761-.885A2.893,2.893,0,0,0,134.9,63.5c1.488-3.764,2.815-7.6,4.23-11.46-3.86-.4-6.53,1.874-6.933,5.372-.08.724-1.078,1.343-1.962,2.413a6.08,6.08,0,0,1,1.914-5.493c3.941-3.667,8.678-4.407,13.745-3.257,2.043.466,2.718,2.413,1.391,4.319A32.762,32.762,0,0,1,143.14,59.411Zm-4.262-.917c3.434.74,6.136-.756,6.8-3.595A2.155,2.155,0,0,0,144,52.036c-.973-.233-2.356-1.311-3.048.418C140.149,54.384,139.553,56.379,138.878,58.494Z" transform="translate(-25.479 -9.901)" fill="#fff"/>
      <path id="パス_43" data-name="パス 43" d="M65.838,6.951c-.161.6-.273,1.142-.45,1.665-3.7,10.938-7.431,21.892-11.074,32.918-.475,1.415-1.158,1.753-2.574,1.279q2.147-6.345,4.279-12.675C58.488,22.811,61,15.492,63.4,8.149,63.82,6.846,64.407,6.468,65.838,6.951Z" transform="translate(-10.128 -1.321)" fill="#fff"/>
      <path id="パス_44" data-name="パス 44" d="M209.574,8.988l-3.362-.145c-.523-1.946-.426-2.115,1.3-2.123h8.847c-.8,1.826-.8,1.826-4.528,2.356V19.089h4.512c-.692,2.638-2.67,2.051-4.528,2.123v4.632h-2.171V21.269H206.18c-.547-1.608-.153-2.373,1.448-2.147s2.067-.394,1.995-1.97C209.485,14.5,209.574,11.843,209.574,8.988Z" transform="translate(-40.313 -1.315)" fill="#fff"/>
      <path id="パス_45" data-name="パス 45" d="M123.72,42.771c3.032-8.991,6.024-17.878,9.008-26.765.869-2.566,1.793-5.123,2.582-7.713.4-1.327,1.021-1.954,2.59-1.367q-1.327,3.981-2.67,7.962c-2.968,8.847-5.976,17.693-8.847,26.54C125.891,42.779,125.248,43.27,123.72,42.771Z" transform="translate(-24.219 -1.313)" fill="#fff"/>
      <path id="パス_46" data-name="パス 46" d="M160.065,19.137c-.941,1.608-.941,1.608-4.729,2.308V25.86h-2.1V21.284H149.65V19.346a2.806,2.806,0,0,1,.531-.169c3.056-.281,3.056-.281,3.056-3.442V8.979H149.65V6.88h10.688c-.8.8-1.311,1.681-2.059,1.962a10.175,10.175,0,0,1-2.984.072c0,3.273,0,6.313.056,9.345,0,.306.7.8,1.118.8A29.191,29.191,0,0,0,160.065,19.137Z" transform="translate(-29.295 -1.347)" fill="#fff"/>
      <path id="パス_47" data-name="パス 47" d="M209.55,77.992c.933-1.222,1.689-1.608,3.048-1.359a5.766,5.766,0,0,0,6.563-2.807,66.173,66.173,0,0,0,4.423-9.5c-1.327,1.15-2.606,2.364-4.021,3.418a6,6,0,0,1-2,.6,6.932,6.932,0,0,1-.362-2.051c.233-1.962.668-3.9.925-5.863a9.111,9.111,0,0,0-.169-2.067c-.619.29-1.247.571-1.858.893-.193.1-.33.29-.611.281a5.091,5.091,0,0,1,3.45-2.541c1.182-.209,1.23.8,1.142,1.608-.177,1.568-.491,3.129-.692,4.7-.129,1.029-.145,2.075-.249,3.683a10.054,10.054,0,0,0,2.348-1.48,61.17,61.17,0,0,0,4.439-6.321c.659-1.126,1.19-2,3.04-1.97-2.662,5.324-4.9,10.7-7.93,15.57C218.63,76.641,214.649,78.547,209.55,77.992Z" transform="translate(-41.021 -11.151)" fill="#fff"/>
      <path id="パス_48" data-name="パス 48" d="M150.63,78.082c.957-1.432,1.785-1.7,3.1-1.448a5.7,5.7,0,0,0,6.434-2.718c1.729-3,3.169-6.161,4.737-9.257l-.394-.193c-1.311,1.118-2.59,2.3-3.973,3.338a5.565,5.565,0,0,1-1.858.547,5.63,5.63,0,0,1-.426-1.85c.209-1.85.6-3.683.869-5.525.121-.861.121-1.745.209-3.217l-2.71,1.745a4.825,4.825,0,0,1,3.378-2.541c1.013-.2,1.279.579,1.182,1.391-.217,1.793-.507,3.579-.8,5.372a4.021,4.021,0,0,0-.169,1,13.811,13.811,0,0,0,.378,1.689,5.284,5.284,0,0,0,1.5-.587,16.085,16.085,0,0,0,4.97-6.74c.643-1.608.684-1.608,2.871-1.995-2.413,5.043-4.52,10.029-7.142,14.734a12.064,12.064,0,0,1-9.595,6.209,24.659,24.659,0,0,1-2.557.048Z" transform="translate(-29.487 -11.144)" fill="#fff"/>
      <path id="パス_49" data-name="パス 49" d="M202.164,57.963a46.149,46.149,0,0,1,4.6-2.976c.668-.33,1.657,0,2.5,0-.177.8-.064,1.986-.579,2.413a52.4,52.4,0,0,1-4.93,3.563c.732,3.426,2.035,4.254,4.5,2.606l.249.378a23.137,23.137,0,0,1-3.217,1.978c-.37.153-1.311-.362-1.609-.8-.8-1.271-1.448-2.67-2.18-4.021-1.552,1.263-.434,4.472-3.587,4.825.418-1.311.8-2.469,1.174-3.619,1-2.944,1.906-5.919,3.056-8.806,1.713-4.327,4.584-7.5,9.369-8.469a8.678,8.678,0,0,1,1.608,0l.129.6a14.814,14.814,0,0,1-2.968.8,4.906,4.906,0,0,0-4.447,2.654C204.489,51.835,203.451,54.8,202.164,57.963Zm-.539,1.818.378.5c1.89-.088,3.659-.523,4.777-2.228.3-.45.113-1.214.153-1.834-.571.056-1.311-.1-1.673.2-1.3,1.021-2.453,2.252-3.635,3.362Z" transform="translate(-38.742 -8.808)" fill="#fff"/>
      <path id="パス_50" data-name="パス 50" d="M239.548,58.263l-2.364,1.657-.233-.306a36.406,36.406,0,0,1,3.563-2.413c1.134-.6,1.745-.04,1.375,1.279-.523,1.9-1.247,3.748-1.842,5.63-.265.8-.426,1.7-.635,2.541l.418.426a14.8,14.8,0,0,0,2.574-1.214,12.868,12.868,0,0,0,4.962-6.691c.362-1.2.9-2.059,2.477-2.035-1.2,3.217-2.413,6.434-3.571,9.651l.466.386,2.316-1.608a5.147,5.147,0,0,1-4.825,2.823l1.094-4.2c-1.608,1.174-3.032,2.3-4.536,3.37a6.08,6.08,0,0,1-1.665.8c-1.448.466-2.083-.137-1.608-1.608.692-2.324,1.488-4.624,2.228-6.933a8.753,8.753,0,0,0,.225-1.11Z" transform="translate(-46.384 -11.15)" fill="#fff"/>
      <path id="パス_51" data-name="パス 51" d="M186.679,63.867c-1.424,1.15-2.525,2.091-3.683,2.96a8.123,8.123,0,0,1-2.035,1.19,10.006,10.006,0,0,1-2.1.281,7.078,7.078,0,0,1-.064-2.091c.571-2.011,1.295-3.973,1.938-5.967a16.208,16.208,0,0,0,.386-1.608l-.37-.354-2.212,1.464a6.3,6.3,0,0,1,3.635-2.783c1.094-.072,1.19.587.917,1.424-.611,1.882-1.255,3.756-1.858,5.63-.257.8-.45,1.608-.853,3.04a13.986,13.986,0,0,0,2.855-1.029,12.868,12.868,0,0,0,5.324-7c.354-1.2.973-1.995,2.413-1.914q-1.785,4.825-3.563,9.651l.555.362,2.517-1.954.233.3c-1.2.917-2.356,1.89-3.6,2.726-.346.233-.957.08-1.44.1a5.163,5.163,0,0,1,0-1.407C185.915,65.974,186.269,65.1,186.679,63.867Z" transform="translate(-34.95 -11.149)" fill="#fff"/>
      <path id="パス_52" data-name="パス 52" d="M180.635,0h1.793c1.013,2.131-.3,3.595-1.818,5.308h6.522c-.716,1.657-1.568,2.59-3.217,2.284-1.182-.217-1.7.362-2.027,1.44-.458,1.512-1.2,2.935-1.608,4.456-.442,1.657-1.375,2.035-2.976,1.5.861-2.373,1.721-4.737,2.662-7.311H176.71V5.4h3.957Z" transform="translate(-34.592)" fill="#fff"/>
      <path id="パス_53" data-name="パス 53" d="M191.06,30.677c1.424-.45,2.163-.3,2.123,1.44-.1,3.844,0,7.689,0,11.533,0,.981-.338,2.188,1.432,1.962-.8,1.7-1.8,2.413-3.523,1.8Z" transform="translate(-37.401 -5.963)" fill="#fff"/>
      <path id="パス_54" data-name="パス 54" d="M121.722,23.323c-1.56.515-2.413.169-2.9-1.375-1.552-4.552-3.273-9.024-4.946-13.527-.177-.466-.314-.949-.491-1.512,1.456-.458,2.308-.241,2.847,1.327,1.608,4.536,3.289,9.016,4.938,13.511A15.886,15.886,0,0,1,121.722,23.323Z" transform="translate(-22.197 -1.311)" fill="#fff"/>
      <path id="パス_55" data-name="パス 55" d="M104.89,6.948c1.7-.539,2.413-.064,2.96,1.456,1.552,4.536,3.289,9.016,4.946,13.519.177.466.29.949.434,1.432-1.512.5-2.332.185-2.871-1.375C108.63,16.953,106.748,12.007,104.89,6.948Z" transform="translate(-20.533 -1.318)" fill="#fff"/>
      <path id="パス_56" data-name="パス 56" d="M38.9,6.948c1.7-.563,2.413,0,2.935,1.48,1.737,4.954,3.579,9.916,5.421,14.895-1.7.627-2.413,0-3-1.608-1.528-4.48-3.217-8.895-4.882-13.342C39.206,7.945,39.069,7.463,38.9,6.948Z" transform="translate(-7.615 -1.318)" fill="#fff"/>
      <path id="パス_57" data-name="パス 57" d="M6.456,23.839H4.47V6.95C6.5,6.54,6.5,6.588,6.5,8.558v13.72C6.5,22.737,6.5,23.236,6.456,23.839Z" transform="translate(-0.875 -1.32)" fill="#fff"/>
      <path id="パス_58" data-name="パス 58" d="M184.225,47.549H182.23V30.66h1.995Z" transform="translate(-35.673 -6.002)" fill="#fff"/>
      <path id="パス_59" data-name="パス 59" d="M64.855,59.2c0,3.595-4.568,8.75-8.123,9.193-2.308.29-3.354-.8-2.807-3.072A11.259,11.259,0,0,1,61.3,57.135C63.488,56.3,64.863,57.223,64.855,59.2Zm-8.951,6.1c.193.338.442,1.375,1.021,1.608a3.217,3.217,0,0,0,2.533-.225,6.852,6.852,0,0,0,3.153-5.7c.064-.8-.273-2.276-.8-2.469a3.683,3.683,0,0,0-2.919.41C56.909,60.28,56.2,62.459,55.9,65.306Z" transform="translate(-10.528 -11.124)" fill="#fff"/>
      <path id="パス_60" data-name="パス 60" d="M91.808,57.962l-1.785-.129-.265-.362C92,57.038,93.07,55.059,94.582,53.7l.41.362-.458,2.557h4.48l.137.571a12.8,12.8,0,0,1-2.606.668c-3.273.137-2.413-.458-3.563,2.63a39.946,39.946,0,0,0-1.319,4.021,6.869,6.869,0,0,0,.064,1.938c.676-.169,1.359-.306,2.019-.523a3.064,3.064,0,0,0,.74-.531l.458.507c-.394.2-.8.386-1.174.619-1.134.716-2.413,1.9-3.667,1.046s-.362-2.413,0-3.563c.555-1.9,1.23-3.756,1.842-5.63C91.928,58.292,91.856,58.172,91.808,57.962Z" transform="translate(-17.511 -10.512)" fill="#fff"/>
      <path id="パス_61" data-name="パス 61" d="M175.892,47.559H174.05V30.67h1.842Z" transform="translate(-34.071 -6.004)" fill="#fff"/>
      <path id="パス_62" data-name="パス 62" d="M34.88,65.478a32.829,32.829,0,0,1-4.689,2.807c-2.356.933-4.086-.611-3.426-3.032A11.935,11.935,0,0,1,34,57.21c.579-.249,1.44.145,2.171.233a6.008,6.008,0,0,1-.322,2.059,9.949,9.949,0,0,1-5.726,4.23c-.925.322-1.713.6-1.375,1.842s1.142,1.777,2.2,1.424a26.443,26.443,0,0,0,3.667-1.834Zm-5.71-2.718a4.825,4.825,0,0,0,4.882-2.035c.322-.458.193-1.239.273-1.874-.684-.08-1.472-.418-2.019-.177-1.633.708-2.485,2.163-3.137,4.086Z" transform="translate(-5.212 -11.183)" fill="#fff"/>
      <path id="パス_63" data-name="パス 63" d="M75.81,6.95c1.608-.547,2.139,0,2.1,1.56-.08,3.555,0,7.118,0,10.672,0,.5-.056.989-.1,1.568h-2Z" transform="translate(-14.84 -1.32)" fill="#fff"/>
      <path id="パス_64" data-name="パス 64" d="M86.837,37.3c-.048-1.078-.475-2.091.957-2.091h15.53l.322.466c-.611.547-1.214,1.544-1.842,1.56C96.865,37.365,91.911,37.3,86.837,37.3Z" transform="translate(-16.98 -6.893)" fill="#fff"/>
      <path id="パス_65" data-name="パス 65" d="M74.293,58.258l-2.212,1.608a6.191,6.191,0,0,1,3.724-2.927c1.013-.072,1.15.539.949,1.311-.257.965-.587,1.906-.989,3.217,2.413-2.083,4.021-4.825,7.319-4.5l.306.611c-.933.394-1.866.8-2.791,1.182a10.921,10.921,0,0,0-2.533,1.19,11.983,11.983,0,0,0-4.021,6.49c-.306,1-.74,1.8-2.244,1.568,1.021-3.12,2.043-6.217,3.056-9.313Z" transform="translate(-14.055 -11.145)" fill="#fff"/>
      <path id="パス_66" data-name="パス 66" d="M39.69,67.959c.917-.917,1.528-1.311,2.767-.8a3.635,3.635,0,0,0,3.048-.426c1.1-.8.458-2.043-.249-3q-.362-.483-.724-.941c-1.906-2.413-1.4-4.447,1.544-5.453a19.664,19.664,0,0,1,3.876-.515l.129.869c-.732.088-1.456.161-2.188.257s-1.689.265-2.525.394a17.557,17.557,0,0,0,.5,2.413,5.091,5.091,0,0,0,.9,1.222c1.657,2.212,1.415,3.716-.893,5.2a6.514,6.514,0,0,1-6.185.78Z" transform="translate(-7.77 -11.123)" fill="#fff"/>
      <path id="パス_67" data-name="パス 67" d="M100.91,67.961c.909-.917,1.52-1.311,2.759-.8a3.6,3.6,0,0,0,3.048-.418c1.1-.8.466-2.035-.249-3q-.346-.466-.724-.941c-1.9-2.413-1.4-4.439,1.536-5.445a18.682,18.682,0,0,1,3.884-.523l.121.869c-.724.08-1.448.161-2.171.257-.852.121-1.689.257-2.533.394a18.045,18.045,0,0,0,.5,2.413,4.713,4.713,0,0,0,.9,1.214c1.657,2.212,1.415,3.724-.893,5.212a6.49,6.49,0,0,1-6.177.772Z" transform="translate(-19.754 -11.125)" fill="#fff"/>
      <path id="パス_68" data-name="パス 68" d="M84.2,6.837a8.413,8.413,0,0,1,.885-.1c.273,0,.539.048.933.08V20.734H84.2Z" transform="translate(-16.483 -1.319)" fill="#fff"/>
      <path id="パス_69" data-name="パス 69" d="M172.256,22h10.335c-.6,1.327-1.343,2.115-2.9,2.027-2.019-.113-4.021,0-6.072,0C171.934,23.946,171.9,23.882,172.256,22Z" transform="translate(-33.685 -4.307)" fill="#fff"/>
      <path id="パス_70" data-name="パス 70" d="M160.027,37.61a2.935,2.935,0,0,1-3.265,1.97c-2.348-.121-4.713,0-7.142,0V37.61Z" transform="translate(-29.289 -7.362)" fill="#fff"/>
      <path id="パス_71" data-name="パス 71" d="M206,39.53V37.6h10.455a2.76,2.76,0,0,1-2.935,1.978C211.035,39.466,208.574,39.53,206,39.53Z" transform="translate(-40.326 -7.36)" fill="#fff"/>
      <path id="パス_72" data-name="パス 72" d="M191.07,22.962V17.71h1.995v5.252Z" transform="translate(-37.403 -3.467)" fill="#fff"/>
      <path id="パス_73" data-name="パス 73" d="M252.15,11.771V6.27h1.834v5.413Z" transform="translate(-49.36 -1.227)" fill="#fff"/>
      <path id="パス_74" data-name="パス 74" d="M249,39.291c1.214-2.155,1.608-2.292,5.059-1.721,0,.507.064,1.046.1,1.721Z" transform="translate(-48.743 -7.298)" fill="#fff"/>
      <path id="パス_75" data-name="パス 75" d="M254.051,24.126H249c1.029-2.163,1.424-2.316,4.962-1.866.048.29.121.6.145.917a7.8,7.8,0,0,1-.056.949Z" transform="translate(-48.743 -4.317)" fill="#fff"/>
      <path id="パス_76" data-name="パス 76" d="M226.46,39.338V37.52h4.93C230.546,39.587,230.192,39.724,226.46,39.338Z" transform="translate(-44.331 -7.345)" fill="#fff"/>
      <path id="パス_77" data-name="パス 77" d="M231.527,22.26c-1.013,2.742-3.12,1.85-5.027,1.938V22.26Z" transform="translate(-44.339 -4.358)" fill="#fff"/>
    </g>
  </g>
</svg>
