<svg id="header-logo-blue" xmlns="http://www.w3.org/2000/svg" width="155.42" height="50.655" viewBox="0 0 155.42 50.655">
  <g id="レイヤー_1" data-name="レイヤー 1">
    <path id="パス_2" data-name="パス 2" d="M3.408,44.9l1.369.17c-1.491,1.539-3.14.608-4.777.475.389-.256.791-.748,1.168-.724,1.655.091,2.282-1.053,2.738-2.251,1-2.635,1.886-5.312,2.823-7.983a4.478,4.478,0,0,0-5.239,3.791c-.055.608-.742,1.217-1.3,1.679a3.73,3.73,0,0,1,1.369-3.815,15.535,15.535,0,0,1,4.077-2.282A2.568,2.568,0,0,0,7.46,32.139c2.7-8.117,5.476-16.216,8.16-24.34.329-.992.809-1.3,1.911-.907-2.927,8.787-5.9,17.561-8.878,26.4,1.059.14,2,.183,2.89.4,1.868.444,2.507,1.935,1.345,3.493A23.62,23.62,0,0,1,9.8,40.037c.3.852.639,1.9,1.047,2.933.858,2.16,1.375,2.294,3.31.761a3.517,3.517,0,0,1-2.4,2.264,1.716,1.716,0,0,1-1.412-.724,38.859,38.859,0,0,1-1.825-4.065c-.225-.542-.341-1-1.107-.943s-1.217,0-1.436.876A4.507,4.507,0,0,1,3.2,44.619Zm3.152-5.513c2.708.56,4.813-.706,5.16-2.9a1.594,1.594,0,0,0-1.327-2c-.694-.14-1.941-.17-2.111.17a39.228,39.228,0,0,0-1.722,4.728Z" transform="translate(0 -2.633)" fill="#0e107f"/>
    <path id="パス_3" data-name="パス 3" d="M237.717,9.672v21.68c-1.314.511-2.093,0-2.434-.688a7.761,7.761,0,0,0,.748-2.087c.049-5.829.03-11.659.03-17.482,0-.42-.037-.84-.061-1.375H230.75V8.108h5.3V.07h1.661V5.187c0,2.921,0,2.921,2.982,2.921h2.562c-.432,1.028-.919,1.667-2.069,1.582S238.989,9.672,237.717,9.672Z" transform="translate(-90.341 -0.027)" fill="#0e107f"/>
    <path id="パス_4" data-name="パス 4" d="M139.981,57.261c.316.882.688,2.014,1.138,3.115.785,1.935,1.43,2.057,2.933.608-.091.84-1.144,2.148-2.057,2.124a2.434,2.434,0,0,1-1.765-1.071,21.411,21.411,0,0,1-1.612-3.754c-.225-.608-.475-.907-1.168-.876s-1.114.061-1.333.84a5.266,5.266,0,0,1-2.635,3.736l1.412.274c-1.442,1.521-3.079.554-4.57.682l-.14-.31c.444-.237.9-.694,1.333-.669a2.189,2.189,0,0,0,2.233-1.6c1.126-2.848,2.13-5.75,3.2-8.671a4.465,4.465,0,0,0-5.245,4.065c-.061.548-.815,1.016-1.485,1.825a4.6,4.6,0,0,1,1.448-4.156c2.982-2.775,6.566-3.335,10.4-2.464,1.546.353,2.057,1.825,1.053,3.268A24.789,24.789,0,0,1,139.981,57.261Zm-3.225-.694c2.6.56,4.643-.572,5.142-2.72a1.631,1.631,0,0,0-1.266-2.166c-.736-.176-1.783-.992-2.306.316C137.717,53.458,137.267,54.967,136.756,56.567Z" transform="translate(-50.959 -19.803)" fill="#0e107f"/>
    <path id="パス_5" data-name="パス 5" d="M62.407,6.9c-.122.456-.207.864-.341,1.26-2.8,8.275-5.622,16.563-8.379,24.905-.359,1.071-.876,1.327-1.947.967q1.625-4.8,3.237-9.59c1.868-5.543,3.767-11.081,5.586-16.636C60.879,6.823,61.324,6.537,62.407,6.9Z" transform="translate(-20.257 -2.642)" fill="#0e107f"/>
    <path id="パス_6" data-name="パス 6" d="M208.688,8.436l-2.543-.11c-.4-1.473-.322-1.6.986-1.606h6.693C213.215,8.1,213.215,8.1,210.4,8.5v7.576h3.414c-.523,2-2.02,1.552-3.426,1.606v3.5h-1.643V17.728H206.12c-.414-1.217-.116-1.8,1.1-1.625s1.564-.3,1.509-1.491C208.621,12.6,208.688,10.6,208.688,8.436Z" transform="translate(-80.625 -2.631)" fill="#0e107f"/>
    <path id="パス_7" data-name="パス 7" d="M123.72,33.993c2.294-6.8,4.558-13.527,6.815-20.25.657-1.941,1.357-3.876,1.953-5.835.3-1,.773-1.479,1.959-1.034q-1,3.012-2.02,6.024c-2.245,6.693-4.521,13.387-6.693,20.08C125.363,34,124.876,34.37,123.72,33.993Z" transform="translate(-48.438 -2.625)" fill="#0e107f"/>
    <path id="パス_8" data-name="パス 8" d="M157.53,16.153c-.712,1.217-.712,1.217-3.578,1.746V21.24h-1.588V17.778H149.65V16.312a2.123,2.123,0,0,1,.4-.128c2.312-.213,2.312-.213,2.312-2.6V8.468H149.65V6.88h8.087c-.608.608-.992,1.272-1.558,1.485a7.7,7.7,0,0,1-2.257.055c0,2.477,0,4.777.043,7.071,0,.231.529.608.846.608A22.086,22.086,0,0,0,157.53,16.153Z" transform="translate(-58.59 -2.694)" fill="#0e107f"/>
    <path id="パス_9" data-name="パス 9" d="M209.55,72.874a2.063,2.063,0,0,1,2.306-1.028,4.363,4.363,0,0,0,4.965-2.124,50.066,50.066,0,0,0,3.347-7.186c-1,.87-1.971,1.789-3.042,2.586a4.539,4.539,0,0,1-1.515.45,5.245,5.245,0,0,1-.274-1.552c.176-1.485.505-2.951.7-4.436a6.9,6.9,0,0,0-.128-1.564c-.469.219-.943.432-1.406.675-.146.073-.249.219-.462.213a3.852,3.852,0,0,1,2.61-1.923c.894-.158.931.608.864,1.217-.134,1.187-.371,2.367-.523,3.554-.1.779-.109,1.57-.189,2.787a7.607,7.607,0,0,0,1.777-1.12,46.279,46.279,0,0,0,3.359-4.783,2.264,2.264,0,0,1,2.3-1.491c-2.014,4.028-3.706,8.093-6,11.78C216.42,71.852,213.408,73.294,209.55,72.874Z" transform="translate(-82.041 -22.303)" fill="#0e107f"/>
    <path id="パス_10" data-name="パス 10" d="M150.63,72.933a1.989,1.989,0,0,1,2.343-1.1,4.316,4.316,0,0,0,4.868-2.057c1.308-2.27,2.4-4.661,3.584-7l-.3-.146c-.992.846-1.959,1.74-3.006,2.525a4.211,4.211,0,0,1-1.406.414,4.26,4.26,0,0,1-.322-1.4c.158-1.4.45-2.787.657-4.18.091-.651.091-1.32.158-2.434l-2.051,1.32a3.651,3.651,0,0,1,2.556-1.923c.767-.152.967.438.894,1.053-.164,1.357-.383,2.708-.608,4.065a3.043,3.043,0,0,0-.128.755,10.451,10.451,0,0,0,.286,1.278,4,4,0,0,0,1.138-.444,12.17,12.17,0,0,0,3.76-5.1c.487-1.217.517-1.217,2.172-1.509-1.825,3.815-3.42,7.588-5.4,11.148a9.127,9.127,0,0,1-7.259,4.7,18.658,18.658,0,0,1-1.935.037Z" transform="translate(-58.973 -22.289)" fill="#0e107f"/>
    <path id="パス_11" data-name="パス 11" d="M201.129,54.806a34.918,34.918,0,0,1,3.481-2.251c.505-.249,1.253,0,1.892,0-.134.608-.049,1.5-.438,1.825a39.645,39.645,0,0,1-3.73,2.7c.554,2.592,1.539,3.219,3.4,1.972l.189.286a17.5,17.5,0,0,1-2.434,1.5c-.28.116-.992-.274-1.217-.608-.608-.961-1.1-2.02-1.649-3.042-1.174.955-.329,3.383-2.714,3.651.316-.992.608-1.868.888-2.738.755-2.227,1.442-4.478,2.312-6.663,1.3-3.274,3.468-5.677,7.089-6.407a6.565,6.565,0,0,1,1.217,0l.1.456a11.209,11.209,0,0,1-2.245.608,3.712,3.712,0,0,0-3.365,2.008C202.887,50.17,202.1,52.415,201.129,54.806Zm-.408,1.375.286.377a4.166,4.166,0,0,0,3.614-1.686c.225-.341.085-.919.116-1.387-.432.043-.992-.073-1.266.152-.986.773-1.856,1.7-2.75,2.543Z" transform="translate(-77.484 -17.616)" fill="#0e107f"/>
    <path id="パス_12" data-name="パス 12" d="M238.915,57.946,237.126,59.2l-.176-.231a27.545,27.545,0,0,1,2.7-1.825c.858-.456,1.32-.03,1.041.968-.4,1.436-.943,2.836-1.393,4.259-.2.608-.323,1.284-.481,1.923l.316.322a11.2,11.2,0,0,0,1.947-.919,9.736,9.736,0,0,0,3.754-5.063c.274-.907.682-1.558,1.874-1.539-.907,2.434-1.825,4.868-2.7,7.3l.353.292,1.752-1.217a3.894,3.894,0,0,1-3.651,2.136l.828-3.176c-1.217.888-2.294,1.74-3.432,2.55a4.6,4.6,0,0,1-1.26.608c-1.1.353-1.576-.1-1.217-1.217.523-1.759,1.126-3.5,1.686-5.245a6.619,6.619,0,0,0,.17-.84Z" transform="translate(-92.769 -22.3)" fill="#0e107f"/>
    <path id="パス_13" data-name="パス 13" d="M184.7,62.184c-1.077.87-1.911,1.582-2.787,2.239a6.145,6.145,0,0,1-1.539.9,7.569,7.569,0,0,1-1.588.213,5.354,5.354,0,0,1-.049-1.582c.432-1.521.98-3.006,1.466-4.515a12.26,12.26,0,0,0,.292-1.217l-.28-.268-1.673,1.107a4.765,4.765,0,0,1,2.75-2.105c.828-.055.9.444.694,1.077-.462,1.424-.949,2.842-1.406,4.259-.195.608-.341,1.217-.645,2.3a10.582,10.582,0,0,0,2.16-.779,9.736,9.736,0,0,0,4.028-5.294c.268-.907.736-1.509,1.825-1.448q-1.351,3.651-2.7,7.3l.42.274,1.9-1.479.176.225c-.907.694-1.783,1.43-2.726,2.063-.262.176-.724.061-1.089.073a3.907,3.907,0,0,1,0-1.065C184.12,63.779,184.388,63.115,184.7,62.184Z" transform="translate(-69.901 -22.298)" fill="#0e107f"/>
    <path id="パス_14" data-name="パス 14" d="M179.679,0h1.357c.767,1.612-.225,2.72-1.375,4.016H184.6c-.542,1.253-1.187,1.959-2.434,1.728-.894-.164-1.284.274-1.533,1.089-.347,1.144-.907,2.221-1.217,3.371-.335,1.253-1.041,1.539-2.251,1.132.651-1.8,1.3-3.584,2.014-5.531H176.71V4.083H179.7Z" transform="translate(-69.184)" fill="#0e107f"/>
    <path id="パス_15" data-name="パス 15" d="M191.06,30.625c1.077-.341,1.637-.225,1.606,1.089-.073,2.909,0,5.817,0,8.726,0,.742-.256,1.655,1.083,1.485-.608,1.284-1.363,1.825-2.665,1.363Z" transform="translate(-74.802 -11.926)" fill="#0e107f"/>
    <path id="パス_16" data-name="パス 16" d="M119.694,19.276c-1.18.389-1.825.128-2.191-1.041-1.174-3.444-2.477-6.827-3.742-10.235-.134-.353-.237-.718-.371-1.144,1.1-.347,1.746-.183,2.154,1,1.217,3.432,2.489,6.821,3.736,10.223A12.016,12.016,0,0,1,119.694,19.276Z" transform="translate(-44.394 -2.622)" fill="#0e107f"/>
    <path id="パス_17" data-name="パス 17" d="M104.89,6.9c1.284-.408,1.825-.049,2.239,1.1,1.174,3.432,2.489,6.821,3.742,10.229.134.353.219.718.329,1.083-1.144.377-1.765.14-2.172-1.041C107.719,14.465,106.3,10.723,104.89,6.9Z" transform="translate(-41.066 -2.636)" fill="#0e107f"/>
    <path id="パス_18" data-name="パス 18" d="M38.9,6.9c1.29-.426,1.825,0,2.221,1.12,1.314,3.748,2.708,7.5,4.1,11.269-1.284.475-1.825,0-2.27-1.217-1.156-3.389-2.434-6.73-3.694-10.095C39.131,7.65,39.028,7.285,38.9,6.9Z" transform="translate(-15.23 -2.636)" fill="#0e107f"/>
    <path id="パス_19" data-name="パス 19" d="M5.973,19.678H4.47V6.9c1.539-.31,1.539-.274,1.539,1.217V18.5C6.009,18.844,6.009,19.222,5.973,19.678Z" transform="translate(-1.75 -2.64)" fill="#0e107f"/>
    <path id="パス_20" data-name="パス 20" d="M183.739,43.438H182.23V30.66h1.509Z" transform="translate(-71.345 -12.004)" fill="#0e107f"/>
    <path id="パス_21" data-name="パス 21" d="M62.16,58.624c0,2.72-3.456,6.62-6.146,6.955-1.746.219-2.537-.608-2.124-2.324a8.519,8.519,0,0,1,5.58-6.194C61.126,56.427,62.166,57.127,62.16,58.624Zm-6.772,4.618c.146.256.335,1.041.773,1.217a2.434,2.434,0,0,0,1.917-.17,5.184,5.184,0,0,0,2.385-4.314c.049-.608-.207-1.722-.608-1.868a2.787,2.787,0,0,0-2.209.31C56.148,59.439,55.613,61.088,55.387,63.242Z" transform="translate(-21.057 -22.248)" fill="#0e107f"/>
    <path id="パス_22" data-name="パス 22" d="M91.235,56.925l-1.351-.1-.2-.274c1.7-.329,2.507-1.825,3.651-2.854l.31.274L93.3,55.909h3.389l.1.432a9.681,9.681,0,0,1-1.971.505c-2.477.1-1.825-.347-2.7,1.99a30.222,30.222,0,0,0-1,3.042,5.2,5.2,0,0,0,.049,1.466c.511-.128,1.028-.231,1.527-.4a2.318,2.318,0,0,0,.56-.4l.347.383c-.3.152-.608.292-.888.469-.858.542-1.825,1.436-2.775.791s-.274-1.825,0-2.7c.42-1.436.931-2.842,1.393-4.259C91.326,57.174,91.272,57.083,91.235,56.925Z" transform="translate(-35.023 -21.024)" fill="#0e107f"/>
    <path id="パス_23" data-name="パス 23" d="M175.443,43.448H174.05V30.67h1.393Z" transform="translate(-68.143 -12.008)" fill="#0e107f"/>
    <path id="パス_24" data-name="パス 24" d="M32.871,63.446a24.838,24.838,0,0,1-3.547,2.124c-1.783.706-3.091-.462-2.592-2.294a9.03,9.03,0,0,1,5.476-6.085c.438-.189,1.089.11,1.643.176a4.545,4.545,0,0,1-.243,1.558,7.527,7.527,0,0,1-4.332,3.2c-.7.243-1.3.45-1.041,1.393S29.1,64.863,29.9,64.6a20.007,20.007,0,0,0,2.775-1.387Zm-4.32-2.057a3.651,3.651,0,0,0,3.694-1.539c.243-.347.146-.937.207-1.418-.517-.061-1.114-.316-1.527-.134a4.612,4.612,0,0,0-2.373,3.091Z" transform="translate(-10.424 -22.367)" fill="#0e107f"/>
    <path id="パス_25" data-name="パス 25" d="M75.81,6.9c1.217-.414,1.619,0,1.588,1.18-.061,2.69,0,5.385,0,8.075,0,.377-.043.748-.073,1.187H75.81Z" transform="translate(-29.681 -2.64)" fill="#0e107f"/>
    <path id="パス_26" data-name="パス 26" d="M86.813,36.792c-.037-.815-.359-1.582.724-1.582h11.75l.243.353c-.462.414-.919,1.168-1.393,1.18C94.4,36.841,90.653,36.792,86.813,36.792Z" transform="translate(-33.96 -13.785)" fill="#0e107f"/>
    <path id="パス_27" data-name="パス 27" d="M73.686,57.935l-1.673,1.217a4.684,4.684,0,0,1,2.817-2.215c.767-.055.87.408.718.992-.195.73-.444,1.442-.748,2.434,1.825-1.576,3.042-3.651,5.537-3.4l.231.462c-.706.3-1.412.608-2.111.894a8.263,8.263,0,0,0-1.917.9,9.066,9.066,0,0,0-3.042,4.91c-.231.755-.56,1.363-1.7,1.187.773-2.361,1.546-4.7,2.312-7.046Z" transform="translate(-28.111 -22.29)" fill="#0e107f"/>
    <path id="パス_28" data-name="パス 28" d="M39.69,65.248c.694-.694,1.156-.992,2.093-.608a2.75,2.75,0,0,0,2.306-.323c.834-.608.347-1.546-.189-2.27q-.274-.365-.548-.712c-1.442-1.825-1.059-3.365,1.168-4.126a14.878,14.878,0,0,1,2.933-.389l.1.657c-.554.067-1.1.122-1.655.195s-1.278.2-1.911.3a13.284,13.284,0,0,0,.377,1.825,3.852,3.852,0,0,0,.682.925c1.253,1.673,1.071,2.811-.675,3.937A4.929,4.929,0,0,1,39.69,65.248Z" transform="translate(-15.539 -22.246)" fill="#0e107f"/>
    <path id="パス_29" data-name="パス 29" d="M100.91,65.251c.688-.694,1.15-.992,2.087-.608a2.726,2.726,0,0,0,2.306-.316c.834-.608.353-1.539-.189-2.27q-.262-.353-.548-.712c-1.436-1.825-1.059-3.359,1.162-4.119a14.135,14.135,0,0,1,2.939-.4l.091.657c-.548.061-1.1.122-1.643.195-.645.091-1.278.195-1.917.3a13.656,13.656,0,0,0,.377,1.825,3.566,3.566,0,0,0,.682.919c1.253,1.673,1.071,2.817-.675,3.943a4.911,4.911,0,0,1-4.673.584Z" transform="translate(-39.507 -22.25)" fill="#0e107f"/>
    <path id="パス_30" data-name="パス 30" d="M84.2,6.813a6.365,6.365,0,0,1,.669-.073c.207,0,.408.037.706.061V17.328H84.2Z" transform="translate(-32.965 -2.639)" fill="#0e107f"/>
    <path id="パス_31" data-name="パス 31" d="M172.212,22h7.819a2.089,2.089,0,0,1-2.2,1.533c-1.527-.085-3.042,0-4.594,0C171.969,23.473,171.945,23.424,172.212,22Z" transform="translate(-67.37 -8.613)" fill="#0e107f"/>
    <path id="パス_32" data-name="パス 32" d="M157.494,37.61a2.221,2.221,0,0,1-2.47,1.491c-1.777-.091-3.566,0-5.4,0V37.61Z" transform="translate(-58.578 -14.725)" fill="#0e107f"/>
    <path id="パス_33" data-name="パス 33" d="M206,39.06V37.6h7.91a2.088,2.088,0,0,1-2.221,1.5C209.809,39.012,207.947,39.06,206,39.06Z" transform="translate(-80.651 -14.721)" fill="#0e107f"/>
    <path id="パス_34" data-name="パス 34" d="M191.07,21.683V17.71h1.509v3.973Z" transform="translate(-74.806 -6.934)" fill="#0e107f"/>
    <path id="パス_35" data-name="パス 35" d="M252.15,10.432V6.27h1.387v4.1Z" transform="translate(-98.72 -2.455)" fill="#0e107f"/>
    <path id="パス_36" data-name="パス 36" d="M249,38.8c.919-1.631,1.217-1.734,3.827-1.3,0,.383.049.791.079,1.3Z" transform="translate(-97.487 -14.596)" fill="#0e107f"/>
    <path id="パス_37" data-name="パス 37" d="M252.821,23.622H249c.779-1.637,1.077-1.752,3.754-1.412.037.219.091.456.11.694a5.9,5.9,0,0,1-.043.718Z" transform="translate(-97.487 -8.635)" fill="#0e107f"/>
    <path id="パス_38" data-name="パス 38" d="M226.46,38.9V37.52h3.73C229.551,39.084,229.283,39.187,226.46,38.9Z" transform="translate(-88.662 -14.69)" fill="#0e107f"/>
    <path id="パス_39" data-name="パス 39" d="M230.3,22.26c-.767,2.075-2.361,1.4-3.8,1.466V22.26Z" transform="translate(-88.677 -8.715)" fill="#0e107f"/>
  </g>
</svg>
